<?xml version="1.0" standalone="no"?>
<!DOCTYPE svg PUBLIC "-//W3C//DTD SVG 20010904//EN"
 "http://www.w3.org/TR/2001/REC-SVG-20010904/DTD/svg10.dtd">
<svg version="1.0" xmlns="http://www.w3.org/2000/svg"
 width="640.000000pt" height="640.000000pt" viewBox="0 0 640.000000 640.000000"
 preserveAspectRatio="xMidYMid meet">
<metadata>
Created by potrace 1.14, written by Peter Selinger 2001-2017
</metadata>
<g transform="translate(0.000000,640.000000) scale(0.100000,-0.100000)"
fill="#000000" stroke="none">
<path d="M3623 5665 c-32 -23 -29 -38 19 -81 76 -71 128 -128 128 -141 0 -17
-20 -16 -44 2 -29 22 -242 102 -316 119 -92 21 -204 13 -335 -22 -218 -59
-411 -117 -540 -162 -27 -9 -75 -25 -105 -35 -30 -9 -113 -45 -185 -80 -71
-34 -155 -73 -185 -85 -119 -50 -249 -158 -304 -253 -15 -26 -31 -47 -35 -47
-3 0 -26 -39 -50 -87 -24 -49 -48 -95 -52 -103 -11 -18 -26 -51 -86 -195 -26
-60 -50 -114 -55 -120 -4 -5 -8 -17 -8 -27 0 -10 -4 -18 -9 -18 -4 0 -11 -19
-13 -42 -3 -24 -24 -82 -47 -131 -22 -48 -41 -93 -41 -100 0 -7 -4 -17 -8 -22
-5 -6 -28 -64 -51 -130 -24 -66 -46 -129 -51 -140 -4 -11 -15 -47 -25 -80 -9
-33 -30 -88 -46 -122 -36 -76 -38 -148 -9 -267 11 -44 34 -142 51 -216 36
-157 63 -244 85 -278 22 -34 14 -120 -27 -287 -34 -141 -35 -139 35 -182 25
-17 70 -30 129 -40 100 -16 107 -18 107 -37 0 -8 6 -19 14 -25 7 -6 16 -33 19
-59 11 -95 46 -158 135 -248 92 -93 108 -103 202 -128 88 -23 112 -56 117
-160 3 -73 3 -75 -30 -110 -19 -20 -39 -36 -44 -36 -12 0 -30 -58 -38 -123 -4
-26 -11 -47 -16 -47 -5 0 -21 -24 -34 -52 -32 -68 -33 -138 -4 -179 28 -40 38
-166 15 -201 -9 -13 -26 -53 -40 -88 -13 -36 -36 -96 -51 -135 -22 -57 -27
-87 -27 -165 -1 -87 1 -99 28 -148 16 -29 35 -64 42 -77 16 -29 128 -146 163
-168 33 -22 82 -23 151 -4 67 19 126 52 106 60 -7 3 -1 6 13 6 14 1 43 12 63
26 42 28 115 65 130 65 5 0 17 6 25 14 21 18 89 56 101 56 6 0 20 -9 33 -21
27 -23 27 -45 1 -253 -6 -54 -6 -58 12 -54 23 4 34 51 63 288 12 91 24 179 27
195 4 22 3 26 -5 15 -5 -8 -13 -33 -17 -55 -6 -40 -37 -85 -58 -85 -27 0 -143
144 -169 210 -5 13 -6 12 -6 -1 -1 -9 8 -28 19 -42 11 -14 20 -29 20 -34 0 -5
14 -28 31 -51 17 -23 28 -49 25 -57 -3 -8 -24 -23 -48 -34 -69 -32 -97 -31
-99 2 -1 20 -2 20 -6 2 -22 -90 -219 -205 -351 -205 -55 0 -55 0 -126 73 -98
99 -121 159 -113 293 3 52 10 100 15 107 5 7 12 24 16 39 16 66 89 258 99 258
6 0 17 -7 26 -16 9 -8 32 -29 52 -47 20 -18 43 -46 52 -63 15 -29 47 -63 47
-51 0 23 -53 92 -111 147 -64 60 -70 69 -75 115 -4 28 -17 73 -31 101 l-24 51
21 56 c23 62 36 75 53 58 18 -18 28 -12 21 14 -3 14 -1 63 6 109 14 98 31 121
89 121 37 0 37 0 25 24 -8 15 -11 42 -8 65 3 23 -2 92 -10 155 -8 63 -13 119
-9 125 3 6 0 5 -8 -2 -8 -8 -13 -30 -11 -62 2 -60 -10 -70 -36 -28 -24 39 -54
137 -46 149 9 15 120 11 133 -5 9 -10 8 -15 -4 -20 -8 -3 -15 -10 -15 -16 0
-7 6 -8 19 0 11 5 33 10 49 10 38 0 93 -55 129 -130 30 -61 37 -146 21 -254
l-9 -59 49 -51 c79 -81 85 -98 89 -276 1 -85 0 -148 -4 -140 -3 8 -9 17 -13
20 -15 10 -37 96 -33 126 6 36 -18 88 -46 104 -11 5 -42 10 -69 10 l-50 0 1
63 c2 49 -3 73 -21 108 -26 50 -60 94 -67 87 -3 -2 4 -13 14 -24 10 -11 24
-37 30 -57 7 -20 17 -39 22 -42 5 -4 9 -25 9 -49 0 -49 -30 -86 -71 -86 -13 0
-31 -5 -39 -11 -11 -8 3 -9 50 -5 36 3 92 2 124 -3 77 -11 95 -32 95 -107 -1
-30 4 -61 11 -69 7 -8 12 -34 11 -58 -8 -226 -11 -234 -87 -263 -38 -14 -56
-16 -105 -8 -32 6 -59 9 -59 7 0 -5 89 -43 101 -43 6 0 38 12 71 27 49 22 61
24 68 13 5 -8 6 -18 4 -22 -11 -17 -5 -94 10 -133 l16 -40 -6 45 c-7 50 -7 50
-5 68 2 21 22 2 38 -35 23 -57 25 -32 2 38 -12 37 -21 92 -22 132 -1 68 0 70
35 101 68 59 278 210 345 247 33 19 39 19 47 6 8 -13 14 -11 37 14 16 17 37
29 52 29 13 0 57 13 97 30 40 16 76 28 80 25 4 -2 10 -22 14 -44 4 -25 17 -50
38 -70 41 -40 48 -34 8 9 -36 39 -40 84 -9 101 17 9 24 8 31 -2 6 -9 8 1 6 31
l-3 45 130 6 c117 5 141 10 235 44 58 20 116 38 130 39 24 1 25 -2 22 -42 -3
-38 -1 -43 15 -41 27 5 103 -33 103 -50 0 -12 5 -10 18 7 l18 23 49 -19 c28
-11 95 -37 150 -58 55 -21 110 -48 122 -60 13 -13 23 -20 23 -16 0 3 10 -7 23
-23 12 -15 30 -37 40 -48 10 -10 30 -42 44 -70 14 -29 31 -59 38 -67 6 -8 29
-62 50 -120 20 -58 52 -143 71 -190 33 -85 66 -207 78 -288 6 -42 5 -43 -29
-58 -19 -8 -56 -17 -80 -21 -61 -8 -57 -23 5 -23 35 0 52 -4 56 -15 5 -13 -5
-100 -22 -193 -6 -29 -4 -32 20 -32 23 0 26 4 27 33 0 17 2 41 5 52 2 11 7 46
10 78 4 31 10 57 15 57 4 0 22 12 39 26 21 18 29 32 25 43 -4 9 -15 50 -25 91
-19 77 -44 159 -60 195 -23 52 -60 155 -60 165 0 12 -63 161 -80 190 -5 8 -24
47 -43 85 -19 39 -43 79 -54 90 -11 11 -28 33 -37 48 -10 15 -25 27 -32 27
-14 0 -55 19 -159 74 -27 15 -81 36 -120 47 -38 11 -79 25 -90 29 -11 5 -36
11 -55 12 -33 3 -35 6 -38 41 -3 32 0 38 23 47 82 31 215 103 209 112 -4 7 -2
8 5 4 6 -4 32 6 57 23 25 17 50 31 57 31 7 0 23 9 37 20 14 11 30 20 36 20 6
0 18 7 25 16 7 9 39 33 70 55 31 21 96 79 145 129 48 49 93 90 100 90 7 0 17
-7 22 -16 7 -13 17 -9 60 26 29 22 52 45 52 50 0 15 16 12 34 -5 8 -8 20 -15
27 -15 17 0 75 66 95 110 57 121 126 196 198 214 77 19 200 187 213 291 10 76
0 196 -22 258 -16 48 -16 48 11 95 15 26 44 63 65 82 36 33 39 40 50 120 16
114 16 524 0 620 -17 104 -52 253 -62 265 -17 18 -8 34 36 65 51 35 95 74 95
84 0 15 -64 67 -123 100 -57 32 -68 44 -96 99 -49 95 -92 167 -141 236 -25 35
-52 73 -60 85 -69 101 -404 421 -490 468 -30 16 -59 33 -65 38 -26 19 -105 28
-190 21 -49 -4 -95 -6 -100 -4 -6 2 -18 51 -28 109 -23 149 -61 216 -157 279
-86 57 -291 94 -337 60z m212 -60 c185 -61 232 -133 239 -365 l3 -105 79 5
c163 10 247 6 294 -15 120 -53 276 -194 443 -400 27 -33 52 -62 55 -65 11 -8
72 -100 72 -108 0 -5 13 -26 30 -49 16 -22 27 -43 24 -46 -3 -3 3 -12 15 -19
12 -7 21 -19 21 -27 0 -7 10 -32 21 -55 12 -22 25 -48 29 -56 4 -8 22 -25 41
-37 19 -13 39 -26 44 -31 6 -4 25 -17 43 -27 33 -20 43 -45 18 -45 -7 0 -25
-9 -40 -21 -21 -17 -30 -18 -41 -9 -25 21 -36 2 -21 -38 8 -20 21 -68 29 -107
9 -38 23 -104 33 -145 14 -61 18 -123 18 -330 1 -140 -3 -286 -7 -323 -7 -58
-12 -69 -32 -77 -18 -7 -28 -26 -45 -84 -17 -56 -27 -76 -40 -76 -9 0 -33 -17
-53 -37 -20 -21 -46 -45 -58 -54 -12 -8 -20 -21 -17 -29 3 -9 16 -3 45 23 22
20 45 37 51 37 6 0 23 -20 37 -43 22 -39 25 -54 25 -148 -1 -133 -11 -178 -61
-253 -61 -93 -159 -146 -159 -87 0 58 -89 86 -134 42 -16 -17 -21 -33 -19 -72
1 -43 -2 -51 -21 -58 -11 -5 -39 -6 -61 -2 -36 6 -40 10 -38 35 3 36 -20 29
-28 -10 -11 -56 -60 -146 -137 -255 -42 -61 -81 -119 -87 -130 -5 -10 -15 -19
-22 -19 -7 0 -13 -4 -13 -10 0 -18 -57 -62 -225 -175 -187 -125 -223 -146
-370 -212 -162 -73 -275 -109 -430 -138 -84 -16 -103 -16 -290 -1 -221 19
-314 34 -485 78 -110 28 -252 88 -267 112 -4 6 -6 50 -4 99 2 80 0 92 -24 135
-15 26 -45 68 -67 94 -22 27 -36 52 -33 58 3 5 28 10 55 10 54 0 252 32 339
55 74 19 158 52 198 76 85 52 177 301 189 507 8 136 14 148 79 162 30 6 69 8
88 5 33 -6 38 -13 117 -173 104 -209 160 -301 202 -329 89 -59 215 -83 403
-76 99 3 349 46 369 62 6 5 25 11 41 14 20 2 12 5 -22 6 -28 0 -54 5 -57 10
-4 5 -27 2 -54 -8 -48 -18 -76 -22 -258 -41 -80 -8 -114 -7 -183 5 -86 17
-147 41 -170 69 -8 9 -20 16 -27 16 -8 0 -14 5 -14 11 0 7 -6 17 -14 23 -30
23 -174 329 -215 455 -16 50 -13 104 8 153 16 39 26 47 82 72 35 15 72 31 81
37 23 12 58 12 58 0 0 -5 -17 -27 -37 -48 -40 -42 -70 -90 -61 -98 3 -3 44 17
91 45 72 42 127 62 127 46 0 -3 -17 -37 -37 -78 -37 -71 -38 -76 -38 -178 0
-101 2 -108 37 -180 46 -92 99 -136 197 -162 71 -18 148 -23 169 -9 8 5 -12 8
-51 9 -76 1 -161 28 -212 68 -35 26 -75 89 -75 116 0 17 117 118 135 118 4 0
27 -18 51 -40 35 -32 51 -40 82 -40 49 0 102 35 115 75 6 17 15 34 21 38 13 9
117 0 152 -13 31 -12 32 -53 3 -138 -24 -72 -90 -150 -141 -169 -20 -7 -26
-12 -15 -12 55 -2 139 71 179 156 20 41 23 64 23 158 -1 109 -2 111 -42 193
-47 92 -41 101 32 57 162 -98 231 -130 260 -119 12 5 13 9 4 20 -6 8 -16 14
-21 14 -13 0 -110 69 -200 143 -53 43 -100 71 -152 91 -42 16 -75 34 -73 40 7
19 157 7 195 -15 17 -10 40 -16 50 -13 13 4 14 3 4 -4 -11 -7 -11 -10 2 -15 9
-4 16 -1 16 4 0 6 8 9 18 6 62 -20 62 -20 62 2 0 11 2 21 5 21 2 0 25 -22 51
-50 25 -27 54 -52 63 -55 30 -9 42 -46 60 -180 20 -142 14 -203 -28 -316 -29
-75 -57 -106 -106 -114 -103 -18 -235 -79 -235 -109 0 -5 10 0 23 12 13 12 28
22 33 22 6 0 35 12 65 26 47 23 68 27 155 28 140 1 183 -24 136 -80 -10 -12
-29 -25 -43 -29 -13 -3 -37 -13 -54 -20 -16 -7 -60 -16 -98 -20 -37 -4 -69
-10 -72 -14 -7 -12 173 17 221 35 33 12 53 29 71 57 23 36 24 41 9 56 -9 9
-31 21 -49 27 -22 8 -31 17 -30 30 2 22 40 183 53 229 5 17 12 49 16 73 6 41
34 61 34 25 1 -70 13 -269 16 -272 11 -12 204 242 204 269 0 6 4 10 10 10 5 0
28 29 51 65 37 58 67 82 70 55 1 -5 2 -15 3 -22 1 -13 26 -24 26 -11 0 4 -5
25 -10 45 -9 32 -7 46 21 113 18 41 29 79 25 83 -10 9 -36 -27 -36 -49 0 -9
-7 -22 -15 -29 -8 -6 -17 -21 -21 -32 -9 -29 -124 -218 -132 -218 -4 0 -16
-17 -27 -37 -11 -21 -30 -49 -42 -62 -11 -13 -27 -35 -35 -49 -31 -59 -78 -92
-78 -54 0 10 -5 66 -11 125 -10 103 -10 107 13 139 13 18 29 38 35 46 13 14
69 108 90 152 12 23 42 126 63 210 32 130 52 329 41 398 -5 26 -12 -14 -25
-138 -10 -96 -21 -179 -26 -185 -4 -5 -15 -44 -25 -85 -29 -122 -112 -320
-134 -320 -4 0 -13 -11 -19 -25 -6 -14 -16 -25 -21 -25 -11 0 -2 33 23 92 9
20 12 39 8 42 -7 4 -33 -43 -81 -148 -24 -52 -34 -53 -37 -3 -1 18 -7 55 -14
82 -21 88 -28 119 -40 180 -15 75 -48 177 -49 151 -1 -11 6 -57 15 -104 8 -46
13 -90 10 -99 -10 -24 -149 129 -186 204 -46 93 -66 96 -34 4 8 -24 23 -61 34
-82 10 -22 14 -39 9 -39 -5 0 -9 4 -9 9 0 5 -8 12 -17 15 -10 3 -31 17 -47 31
-16 14 -33 25 -37 25 -4 0 -14 11 -21 24 -7 13 -32 52 -55 87 l-42 63 51 13
c28 8 59 11 69 8 9 -3 20 -2 23 4 8 12 -79 45 -98 38 -9 -4 -13 -13 -10 -20 4
-10 -2 -14 -21 -14 -32 0 -43 16 -21 32 14 11 13 13 -12 18 -23 5 -29 11 -30
34 0 15 -10 66 -20 113 -11 47 -23 105 -26 130 -18 120 -30 181 -39 187 -7 4
-7 -22 -3 -73 11 -109 11 -110 -7 -189 -17 -79 -36 -134 -54 -152 -6 -7 -13
-18 -15 -25 -3 -9 -30 -14 -79 -16 -83 -3 -141 -13 -213 -36 -27 -9 -53 -16
-59 -16 -14 0 3 75 58 260 11 37 18 105 20 205 l4 150 -14 -128 c-16 -143 -37
-228 -66 -266 -11 -14 -39 -50 -62 -80 -23 -29 -49 -64 -57 -76 -25 -37 -93
-107 -144 -149 -26 -21 -67 -58 -90 -81 -53 -54 -129 -106 -186 -129 -25 -10
-49 -21 -55 -26 -5 -4 -47 -22 -93 -40 -46 -18 -81 -34 -79 -37 16 -16 226 68
333 133 60 37 296 270 361 357 44 58 69 84 74 76 4 -7 4 -19 -1 -28 -4 -9 -16
-45 -25 -81 -17 -68 -38 -110 -56 -110 -6 0 -18 -8 -27 -17 -16 -16 -16 -16 5
-11 20 5 20 4 11 -26 -6 -17 -15 -35 -19 -40 -5 -6 -9 -16 -9 -23 0 -14 -75
-129 -91 -139 -13 -8 -1 -24 19 -24 9 0 42 14 72 30 30 16 63 33 73 36 9 3 17
10 17 15 0 15 118 134 125 127 7 -7 -28 -81 -57 -117 -10 -13 -17 -26 -15 -28
2 -2 24 5 48 15 26 11 80 55 132 105 54 53 98 88 117 92 26 6 29 10 23 35 -5
25 -2 31 21 40 36 13 133 13 142 -1 3 -6 1 -16 -5 -22 -17 -17 -13 -24 11 -23
16 1 27 -9 38 -31 17 -36 29 -55 78 -121 41 -55 33 -68 -35 -56 -26 4 -55 7
-63 7 -8 -1 -53 -5 -100 -8 -47 -3 -92 -8 -101 -10 -29 -9 -254 -47 -297 -51
-23 -1 -55 -12 -71 -23 -16 -12 -34 -21 -40 -21 -6 0 -30 -8 -54 -19 -23 -10
-67 -29 -97 -41 -86 -37 -112 -60 -124 -111 l-11 -44 -98 -20 c-95 -19 -99
-19 -109 -1 -31 56 -64 78 -143 97 -44 10 -96 19 -115 19 -19 0 -42 5 -50 10
-13 9 -13 11 0 20 8 6 32 13 53 16 26 5 34 10 25 15 -10 6 -3 19 28 51 23 24
50 54 60 67 11 13 33 38 49 55 17 17 44 49 60 71 16 22 32 42 35 45 4 3 21 30
37 60 17 30 51 93 77 139 25 46 46 86 46 90 0 4 15 43 34 87 18 44 55 147 81
230 26 82 51 159 56 172 5 12 11 48 14 80 5 56 5 56 -9 27 -9 -16 -15 -39 -16
-50 -1 -28 -116 -363 -135 -391 -9 -13 -20 -24 -25 -24 -5 0 -12 -9 -15 -21
-4 -12 -18 -37 -31 -57 -27 -40 -24 -57 4 -22 37 46 30 2 -15 -90 -58 -119
-119 -213 -208 -318 -38 -46 -87 -105 -109 -130 -21 -26 -44 -47 -50 -47 -14
0 -81 54 -75 60 23 23 249 263 288 305 28 30 51 61 51 68 0 6 4 12 8 12 12 0
85 100 78 107 -3 3 -7 4 -9 2 -12 -17 -124 -157 -134 -167 -7 -7 -13 -18 -13
-23 0 -5 -6 -9 -13 -9 -7 0 -26 -18 -43 -40 -16 -22 -34 -40 -41 -40 -6 0 -21
-15 -32 -32 -11 -18 -54 -66 -95 -107 l-76 -74 -39 11 c-103 31 -216 26 -381
-18 -19 -5 -38 -6 -42 -2 -4 4 -1 43 7 87 15 84 19 142 9 133 -9 -10 -44 -158
-44 -189 0 -34 -29 -66 -67 -75 -16 -3 -35 -8 -43 -12 -8 -3 -21 -6 -29 -6 -8
-1 -16 -6 -18 -11 -2 -6 18 -12 48 -13 28 -1 55 -4 60 -7 27 -17 -38 -149
-133 -267 -42 -53 -154 -156 -233 -216 -6 -4 -27 -19 -47 -34 -20 -16 -41 -28
-46 -28 -5 0 -29 -11 -53 -23 -54 -29 -99 -41 -99 -27 0 13 37 50 50 50 5 0
10 7 10 17 0 9 11 30 23 47 45 59 121 219 157 326 11 36 25 73 31 82 11 22 12
121 0 114 -4 -3 -14 -32 -20 -64 -17 -90 -132 -359 -159 -376 -13 -8 -14 145
-2 252 5 48 18 157 29 242 12 85 20 164 20 175 -2 36 -26 -58 -44 -170 -32
-207 -36 -240 -43 -411 -7 -166 -8 -171 -34 -203 -16 -18 -28 -36 -28 -39 0
-4 -13 -21 -28 -37 -16 -17 -27 -35 -25 -41 3 -10 59 -5 109 11 17 5 23 2 28
-20 4 -15 4 -30 1 -33 -6 -7 -194 24 -203 33 -3 3 5 49 17 103 47 197 71 375
53 386 -6 3 -13 2 -17 -4 -18 -30 -38 16 -69 160 -9 41 -21 89 -26 105 -44
144 -58 298 -35 380 9 33 23 87 31 120 8 33 18 69 23 80 5 11 19 52 32 90 20
63 52 159 81 240 6 17 15 34 20 40 4 5 8 20 8 35 0 14 9 36 20 50 11 14 20 35
20 46 0 12 6 27 14 33 8 7 18 27 22 44 3 18 13 41 20 52 8 11 14 26 14 34 0 8
11 37 24 65 13 28 43 94 66 146 146 327 214 424 345 490 11 5 27 14 35 18 45
26 83 42 96 42 8 0 22 4 32 9 63 34 143 70 177 81 22 7 45 16 50 20 20 14 175
69 350 125 99 31 198 63 220 70 22 7 94 26 160 41 149 34 253 35 357 5 145
-43 232 -73 257 -90 14 -10 51 -34 81 -53 30 -19 75 -54 100 -76 52 -48 61
-51 52 -19 -21 69 -128 221 -221 312 -28 27 -51 53 -51 57 0 11 105 -1 155
-17z m175 -1962 c7 -32 15 -75 20 -97 13 -59 6 -67 -56 -64 -40 2 -54 6 -54
17 0 18 23 84 31 91 3 3 9 25 13 49 13 82 30 83 46 4z m-160 -198 c0 -8 -5
-15 -10 -15 -6 0 -15 -10 -21 -23 -7 -15 -27 -27 -64 -38 -53 -16 -55 -16 -55
3 0 32 29 76 52 81 55 10 98 7 98 -8z m-160 -13 c0 -13 -94 -109 -114 -116
-12 -4 -17 -13 -13 -26 3 -11 2 -18 -2 -16 -4 3 -22 -11 -41 -31 -41 -41 -138
-108 -146 -100 -8 8 75 127 92 134 8 3 13 11 10 19 -3 7 5 35 16 62 17 41 27
52 57 61 64 19 141 26 141 13z m60 -92 c0 -15 -100 -110 -116 -110 -19 0 -17
7 15 60 25 42 39 50 94 59 4 0 7 -4 7 -9z m-1217 -219 c33 -13 34 -23 2 -57
-23 -25 -27 -26 -97 -19 -40 4 -122 9 -183 10 -139 4 -135 3 -135 14 0 11 47
28 150 52 80 20 211 19 263 0z m129 -55 c22 -32 -12 -56 -78 -56 -41 0 -43 14
-7 52 20 21 32 26 52 21 14 -3 29 -11 33 -17z m-209 -55 c9 -10 4 -19 -28 -48
-22 -19 -61 -54 -87 -78 -26 -24 -82 -67 -125 -97 -42 -29 -82 -57 -88 -61 -5
-4 -39 -26 -75 -49 -36 -23 -66 -45 -68 -50 -5 -10 -32 -11 -32 0 0 4 14 34
30 65 17 32 30 64 30 71 0 8 6 18 13 24 7 6 26 51 41 99 16 48 34 101 40 116
l11 29 163 -4 c112 -3 166 -8 175 -17z m1295 -43 c19 -19 14 -76 -7 -97 -20
-20 -59 -18 -73 3 -35 52 38 136 80 94z m-961 -43 c41 -12 55 -22 72 -51 47
-79 64 -266 41 -454 -18 -148 -70 -278 -127 -316 -103 -69 -307 -120 -513
-128 -90 -4 -101 -3 -98 12 2 9 15 23 30 30 33 16 69 59 62 75 -2 7 -19 21
-37 30 -38 21 -114 21 -191 1 -27 -7 -53 -11 -58 -8 -4 3 -8 39 -8 80 0 71 1
75 26 84 14 6 29 8 34 5 5 -3 11 -1 15 5 3 6 -3 10 -15 10 -17 0 -21 5 -18 27
4 37 50 55 75 30 13 -13 15 -19 5 -29 -22 -22 -12 -32 11 -11 28 27 111 74
182 104 69 29 129 40 285 51 142 9 168 14 188 31 12 11 22 24 22 28 0 15 -117
52 -224 70 -102 18 -247 22 -271 7 -5 -3 -24 -9 -41 -12 -22 -5 -60 -38 -135
-118 -57 -61 -113 -120 -123 -131 l-19 -20 -10 24 c-5 13 -11 71 -14 129 l-5
105 53 28 c60 30 111 59 119 67 3 3 25 18 50 34 60 39 161 117 236 182 58 51
64 53 125 56 83 4 210 -9 276 -27z m-852 -242 c-15 -26 -37 -61 -49 -78 -47
-65 -59 -108 -18 -65 37 40 42 21 46 -180 1 -48 -2 -56 -21 -65 -30 -13 -29
-33 2 -45 20 -8 25 -16 25 -44 0 -19 3 -42 6 -51 10 -25 -28 -15 -41 10 -5 11
-20 35 -32 52 -13 17 -23 35 -23 41 0 5 -14 28 -30 51 -41 55 -90 154 -90 178
0 21 1 22 100 109 81 72 110 102 110 115 0 6 4 8 9 5 5 -3 12 1 15 10 4 9 9
14 12 11 3 -3 -7 -27 -21 -54z m-306 -247 c12 -14 8 -50 -9 -91 -4 -11 -11
-29 -14 -39 -7 -19 -7 -19 -20 0 -17 23 -35 109 -27 122 5 8 24 16 52 21 4 0
12 -5 18 -13z m3282 -36 c40 -22 5 -100 -39 -86 -15 5 -42 44 -42 61 0 4 50
34 58 35 2 0 12 -5 23 -10z m-3213 -110 c17 -33 27 -60 22 -60 -4 0 -24 18
-44 41 -29 33 -34 45 -25 60 5 10 11 19 14 19 2 0 17 -27 33 -60z m3152 -66
c-11 -27 -39 -73 -57 -92 -7 -7 -13 -19 -13 -26 0 -6 -13 -27 -29 -46 -27 -33
-29 -33 -35 -13 -10 30 -34 36 -54 13 -58 -67 -86 -90 -95 -81 -11 11 14 79
39 111 6 8 26 43 43 76 34 65 48 74 125 74 17 0 37 4 45 9 25 16 41 2 31 -25z
m-3135 -24 c28 -28 69 -62 93 -76 40 -24 57 -54 29 -54 -8 0 -22 -9 -32 -20
-23 -25 -11 -26 23 -1 15 10 43 22 62 27 50 11 50 11 53 14 4 4 33 10 92 21
83 15 174 8 191 -15 15 -21 9 -30 -46 -63 -74 -45 -143 -65 -250 -71 -102 -7
-103 -7 -40 -12 l65 -5 6 -45 c9 -65 4 -70 -59 -54 -80 21 -127 57 -214 163
-20 24 -49 123 -55 184 -5 52 -4 57 13 57 11 0 42 -23 69 -50z m772 -784 c109
-40 287 -76 473 -96 52 -5 101 -10 108 -10 6 0 12 -6 12 -14 0 -16 -29 -29
-135 -56 -44 -12 -83 -27 -87 -35 -4 -7 -20 -16 -35 -20 -27 -6 -173 -90 -183
-105 -3 -4 -36 -28 -74 -54 -80 -55 -102 -54 -92 2 3 20 9 87 12 149 8 124 -6
186 -50 220 -12 10 -26 24 -30 32 -10 16 12 13 81 -13z"/>
<path d="M3720 5087 c0 -3 20 -15 43 -26 49 -24 119 -86 162 -144 29 -39 50
-42 85 -12 8 7 39 21 68 31 68 21 127 10 238 -47 43 -21 79 -39 81 -39 1 0 0
7 -4 15 -7 21 -109 89 -153 103 -71 23 -142 18 -210 -17 -35 -17 -64 -31 -66
-31 -1 0 -25 29 -52 64 -28 35 -65 71 -83 80 -34 17 -109 33 -109 23z"/>
<path d="M4795 4483 c-32 -8 -51 -31 -75 -85 -19 -44 -21 -61 -15 -122 8 -80
17 -95 98 -161 49 -40 61 -45 104 -45 37 1 55 6 78 27 29 26 30 29 29 112 -1
58 -7 98 -18 121 -30 63 -67 120 -78 120 -6 0 -19 6 -27 14 -19 16 -68 26 -96
19z m80 -40 c38 -18 75 -67 94 -124 15 -45 16 -146 2 -181 -9 -25 -15 -28 -59
-28 -36 0 -59 7 -93 28 -87 56 -106 103 -87 211 17 103 63 132 143 94z"/>
<path d="M1760 4347 c-52 -25 -100 -65 -100 -82 0 -7 -8 -23 -18 -36 -32 -42
-64 -164 -63 -241 0 -60 4 -76 27 -105 33 -43 67 -56 123 -48 99 15 216 115
245 210 16 49 20 175 6 175 -4 0 -12 17 -18 38 -19 64 -74 112 -127 112 -16 0
-50 -10 -75 -23z m137 -31 c36 -30 58 -103 57 -187 0 -57 -5 -74 -32 -116 -18
-28 -41 -58 -52 -68 -37 -33 -120 -74 -147 -73 -10 0 -22 -1 -28 -3 -5 -2 -27
0 -47 4 -45 9 -52 27 -50 116 3 111 50 241 107 295 64 60 143 73 192 32z"/>
<path d="M3322 4270 c0 -14 2 -19 5 -12 2 6 2 18 0 25 -3 6 -5 1 -5 -13z"/>
<path d="M2100 4123 c-8 -3 -25 -15 -37 -26 -28 -25 -33 -107 -8 -127 8 -7 15
-18 15 -26 0 -11 27 -26 55 -29 20 -3 67 31 86 61 54 88 -17 181 -111 147z
m63 -22 c33 -13 44 -59 23 -100 -29 -55 -84 -68 -112 -26 -24 36 -9 104 26
122 30 15 32 15 63 4z"/>
<path d="M3965 3423 c-16 -3 -34 -9 -40 -15 -7 -8 -4 -9 8 -4 10 3 32 6 48 6
16 0 29 5 29 10 0 6 -3 9 -7 9 -5 -1 -21 -4 -38 -6z"/>
<path d="M4705 3040 c-3 -5 -2 -10 4 -10 5 0 13 5 16 10 3 6 2 10 -4 10 -5 0
-13 -4 -16 -10z"/>
<path d="M4915 2718 c-22 -13 -44 -38 -45 -51 0 -5 14 3 32 18 28 24 39 27 85
23 36 -3 52 -1 50 6 -5 15 -98 18 -122 4z"/>
<path d="M5042 2678 c2 -6 10 -14 16 -16 7 -2 10 2 6 12 -7 18 -28 22 -22 4z"/>
<path d="M3340 1970 c-75 -16 -207 -57 -188 -59 4 -1 47 11 95 25 74 22 110
26 220 28 84 0 132 5 130 11 -6 17 -167 14 -257 -5z"/>
<path d="M3580 1909 c0 -5 -13 -15 -30 -20 -16 -6 -30 -16 -30 -22 0 -7 4 -7
12 1 7 7 22 12 35 12 16 0 23 6 23 20 0 11 -2 20 -5 20 -3 0 -5 -5 -5 -11z"/>
<path d="M3030 1863 c-25 -15 -54 -35 -65 -46 -20 -18 -20 -18 5 -38 31 -24
80 -49 94 -49 6 1 -3 9 -20 18 -66 37 -78 50 -64 67 7 9 40 29 74 45 33 17 52
30 41 30 -11 0 -40 -12 -65 -27z"/>
<path d="M3455 1775 c-51 -14 -181 -33 -270 -39 -27 -2 4 -2 70 0 107 3 243
29 263 49 8 8 -7 5 -63 -10z"/>
<path d="M3495 3290 c-3 -5 1 -10 9 -10 9 0 16 5 16 10 0 6 -4 10 -9 10 -6 0
-13 -4 -16 -10z"/>
<path d="M3715 1300 c3 -5 8 -10 11 -10 2 0 4 5 4 10 0 6 -5 10 -11 10 -5 0
-7 -4 -4 -10z"/>
<path d="M2058 1243 c7 -3 16 -2 19 1 4 3 -2 6 -13 5 -11 0 -14 -3 -6 -6z"/>
<path d="M3774 1159 c-19 -22 -19 -22 4 -8 12 8 22 17 22 21 0 12 -6 9 -26
-13z"/>
<path d="M4181 1124 c0 -11 3 -14 6 -6 3 7 2 16 -1 19 -3 4 -6 -2 -5 -13z"/>
<path d="M3660 1093 c-64 -26 -104 -36 -164 -40 -82 -6 -195 9 -253 33 -56 24
-37 4 22 -22 116 -51 317 -39 431 26 30 17 54 33 54 36 0 6 5 7 -90 -33z"/>
<path d="M2148 1063 c7 -3 16 -2 19 1 4 3 -2 6 -13 5 -11 0 -14 -3 -6 -6z"/>
<path d="M2188 883 c7 -3 16 -2 19 1 4 3 -2 6 -13 5 -11 0 -14 -3 -6 -6z"/>
<path d="M3030 799 c0 -5 5 -7 10 -4 6 3 10 8 10 11 0 2 -4 4 -10 4 -5 0 -10
-5 -10 -11z"/>
<path d="M3822 801 c-8 -5 -12 -16 -10 -25 2 -12 6 -10 15 9 6 14 10 25 10 25
-1 0 -8 -4 -15 -9z"/>
<path d="M3755 790 l-20 -9 20 0 c11 0 27 4 35 9 13 9 13 10 0 9 -8 0 -24 -4
-35 -9z"/>
<path d="M4071 800 c-1 -3 -4 -52 -6 -110 -4 -102 -3 -103 6 -35 8 57 8 163 0
145z"/>
<path d="M3091 768 c0 -9 -11 -24 -23 -32 -12 -9 -17 -16 -10 -16 6 0 12 -12
13 -27 0 -28 0 -28 10 -4 7 18 15 22 34 19 29 -6 34 7 6 15 -12 3 -21 16 -24
33 -2 16 -5 21 -6 12z"/>
<path d="M3226 752 c-9 -39 -4 -48 21 -33 10 6 13 11 6 11 -6 0 -13 12 -15 28
-4 27 -4 27 -12 -6z"/>
<path d="M2954 764 c-6 -3 -9 -15 -7 -28 3 -13 -3 -45 -12 -71 -18 -54 -14
-63 35 -70 l35 -5 -32 12 c-23 7 -33 17 -33 32 0 27 30 106 41 106 5 0 6 7 3
15 -6 15 -11 17 -30 9z"/>
<path d="M3012 753 c-15 -15 -9 -43 8 -43 15 0 23 26 13 43 -7 13 -10 13 -21
0z"/>
<path d="M3295 760 c4 -6 11 -8 16 -5 14 9 11 15 -7 15 -8 0 -12 -5 -9 -10z"/>
<path d="M3360 761 c0 -6 5 -13 10 -16 6 -3 10 1 10 9 0 9 -4 16 -10 16 -5 0
-10 -4 -10 -9z"/>
<path d="M3510 763 c-34 -6 -45 -19 -22 -25 10 -3 30 3 43 13 24 19 23 20 -21
12z"/>
<path d="M3598 742 c-14 -3 -17 -19 -20 -99 -2 -52 0 -100 4 -107 5 -7 8 -5 8
6 0 24 40 35 55 14 18 -24 25 -19 25 18 0 40 -15 56 -23 25 -4 -15 -12 -20
-29 -17 -22 3 -23 7 -23 73 0 65 2 70 23 73 15 2 25 -3 32 -20 9 -22 10 -21 7
6 -2 30 -17 37 -59 28z"/>
<path d="M3280 730 c-22 -14 -4 -24 43 -25 31 0 42 -4 42 -15 0 -18 -43 -26
-58 -11 -7 7 -14 7 -24 0 -9 -9 -19 -7 -38 5 -30 20 -35 20 -35 2 0 -8 8 -17
17 -21 16 -6 15 -8 -6 -24 l-24 -18 31 -5 c27 -4 31 -1 29 16 -3 28 41 35 59
11 12 -16 11 -36 -2 -102 -2 -13 0 -23 6 -23 5 0 10 18 10 39 0 27 5 41 16 45
13 5 14 9 4 22 -11 12 -10 17 8 30 14 10 20 24 19 44 -2 25 -5 28 -28 23 -15
-3 -30 0 -33 6 -9 13 -16 14 -36 1z"/>
<path d="M3750 724 c0 -5 7 -19 15 -30 8 -10 15 -14 15 -8 0 5 -7 19 -15 30
-8 10 -15 14 -15 8z"/>
<path d="M3817 710 c8 -31 -5 -70 -25 -71 -13 0 -11 -3 6 -9 12 -5 27 -20 32
-32 9 -22 9 -22 9 -2 1 27 17 40 58 49 18 3 36 11 39 17 4 7 -5 8 -27 2 -67
-15 -74 -12 -77 29 -2 20 -7 37 -12 37 -4 0 -6 -9 -3 -20z"/>
<path d="M3497 706 c-4 -9 -16 -16 -27 -16 -11 0 -20 -4 -20 -10 0 -5 9 -10
20 -10 26 0 25 -16 -1 -60 -14 -22 -16 -30 -6 -22 9 8 32 14 51 15 42 2 44 7
15 33 l-21 19 22 17 c17 14 18 18 7 18 -9 0 -20 7 -25 16 -8 15 -10 15 -15 0z"/>
<path d="M2997 669 c-4 -15 1 -22 19 -30 36 -13 54 -11 54 6 0 12 -4 14 -20 5
-15 -8 -21 -6 -29 9 -6 10 -7 21 -4 25 3 3 2 6 -4 6 -6 0 -13 -9 -16 -21z"/>
<path d="M3652 650 c0 -14 2 -19 5 -12 2 6 2 18 0 25 -3 6 -5 1 -5 -13z"/>
<path d="M2741 624 c0 -11 3 -14 6 -6 3 7 2 16 -1 19 -3 4 -6 -2 -5 -13z"/>
<path d="M3725 629 c-16 -6 -13 -8 13 -8 17 -1 32 3 32 7 0 11 -20 11 -45 1z"/>
<path d="M3375 600 c4 -6 11 -8 16 -5 14 9 11 15 -7 15 -8 0 -12 -5 -9 -10z"/>
<path d="M3045 576 c22 -7 44 -10 50 -7 12 6 -30 19 -65 19 -18 0 -14 -3 15
-12z"/>
<path d="M3234 575 c-3 -8 -15 -17 -26 -21 -11 -3 -17 -8 -15 -11 8 -8 44 15
51 32 3 8 3 15 0 15 -2 0 -7 -7 -10 -15z"/>
<path d="M3503 550 c0 -25 2 -35 4 -22 2 12 2 32 0 45 -2 12 -4 2 -4 -23z"/>
<path d="M2732 555 c0 -16 2 -22 5 -12 2 9 2 23 0 30 -3 6 -5 -1 -5 -18z"/>
<path d="M3830 546 c0 -14 5 -28 10 -31 6 -4 10 7 10 24 0 17 -4 31 -10 31 -5
0 -10 -11 -10 -24z"/>
<path d="M4040 529 c-1 -8 -7 -62 -14 -121 -11 -101 -11 -108 5 -113 22 -7 26
-19 39 -132 6 -50 15 -104 21 -120 9 -28 8 -11 -10 155 -3 34 -3 69 1 76 6 11
0 16 -22 21 -34 8 -34 2 -19 135 6 56 8 104 5 107 -3 4 -6 0 -6 -8z"/>
</g>
</svg>
